<svg id="Capa_1" data-name="Capa 1" xmlns="http://www.w3.org/2000/svg" viewBox="0 0 234 198"><defs><style>.cls-1{fill:#606060;}</style></defs><path class="cls-1" d="M123,189c-4.11-.5-8.26-.77-12.33-1.52Q74.4,180.79,53,150.67A8.1,8.1,0,0,1,54.84,139c3.75-2.61,8.64-1.7,11.46,2.24,11.32,15.81,26.41,25.91,45.49,29.8,37.46,7.65,74.87-15.75,84.47-52.76a72.85,72.85,0,0,0-140.8-37.5c-.1.35-.15.72-.29,1.35,4.3-2.89,8.35-5.67,12.45-8.36a8,8,0,0,1,9.18.13C79.67,76,81,78.92,80,82.28a9.54,9.54,0,0,1-3.27,4.93c-8.94,6.27-18,12.32-27.13,18.36-4.25,2.81-9,1.63-11.94-2.84Q28.17,88.38,18.73,74V69c2.92-7.55,12.16-7.7,15.79-.76,1.41,2.68,3.32,5.1,5.16,7.87.34-1.1.6-1.88.82-2.68C50.42,38.31,82.15,12.08,118.57,9.3c25.79-2,48.48,5.9,67.49,23.36A90.06,90.06,0,0,1,204,142.6c-13.69,24.78-34.87,39.67-62.73,44.88-4,.75-8.09,1-12.13,1.52Z"/><path class="cls-1" d="M116.9,78q0-9.87,0-19.74c0-5.13,3.37-8.79,8.07-8.83s8.3,3.59,8.31,8.82q0,17.71,0,35.44a4.09,4.09,0,0,0,1.3,3.19q10.44,10.42,20.77,21a7.84,7.84,0,0,1,2,8.46,7.75,7.75,0,0,1-6.39,5.4,7.66,7.66,0,0,1-7-2.2q-12.45-12.48-24.81-25a8.14,8.14,0,0,1-2.23-5.94Q116.91,88.27,116.9,78Z"/></svg>