<svg id="Capa_1" data-name="Capa 1" xmlns="http://www.w3.org/2000/svg" viewBox="0 0 234 198"><defs><style>.cls-1{fill:#606060;}</style></defs><g id="frrxVy.tif"><path class="cls-1" d="M154.33,187c-2.51-1.93-5.26-3.61-7.49-5.82q-37.8-37.34-75.47-74.8c-5-5-5.11-10.57-.14-15.51,25.91-25.7,51.9-51.32,77.69-77.13,6-6,15-3.68,17.06,3.31,1.24,4.16,0,7.62-3.07,10.63Q144.58,45.79,126.33,64L93.05,97c-.48.48-.92,1-1.49,1.6.63.67,1.18,1.28,1.76,1.86q34.7,34.43,69.4,68.84c2,2,3.52,4.22,3.65,7.17.21,5-2,8-7.89,10.49Z"/></g></svg>