<svg id="Capa_1" data-name="Capa 1" xmlns="http://www.w3.org/2000/svg" viewBox="0 0 234 198"><defs><style>.cls-1{fill:#606060;}</style></defs><path class="cls-1" d="M54.58,61.05C88,61,119,60.79,150,61c36.46.27,63.79,29.36,61.92,65.47-1.55,30-26.69,55.47-56.63,57.09-8.86.48-17.76.21-26.64.31-6.53.08-11.16-2.19-11-9.54s5.15-9,11.49-9.12c9.46-.14,19,.3,28.33-1.06,22.15-3.25,36.71-22.22,35.36-44.82a41.27,41.27,0,0,0-40.7-39.09c-31.59-.46-63.2-.06-94.8,0l-1.7,2.33q11.52,10.64,23,21.28c2.16,2,4.24,4.12,6.32,6.23,4.32,4.4,5.56,9.38,1,14.08s-9.66,3.74-14.13-.48c-5.59-5.28-11-10.77-16.47-16.17C45.67,97.93,36,88.34,26.28,78.83c-5.83-5.69-5.73-11.06.1-16.76Q48.61,40.37,70.6,18.42c4.64-4.61,9.76-6.21,14.69-1.17S88.42,27.4,83.8,32C74.58,41.06,65.42,50.24,54.58,61.05Z"/></svg>