<svg id="Capa_1" data-name="Capa 1" xmlns="http://www.w3.org/2000/svg" viewBox="0 0 234 198"><defs><style>.cls-1{fill:#606060;}</style></defs><g id="xR1sBK.tif"><path class="cls-1" d="M22.91,42.87c1.27-3.38,3.7-4.62,7.29-4.59,12.43.11,24.86,0,37.29,0h2.39c0-.86,0-1.51,0-2.17,0-7.1,0-14.2,0-21.3,0-4.34,2.22-6.6,6.52-6.6q40.59-.06,81.19-.08c4.17,0,6.45,2.29,6.46,6.48,0,7.11,0,14.21,0,21.31V38.2h2.28c12.62,0,25.23-.05,37.85,0a9.12,9.12,0,0,1,4.18,1,5.53,5.53,0,0,1,2.44,6.37,5.84,5.84,0,0,1-5.9,4.34c-4.71.07-9.43,0-14.14,0h-2.15c-.36,5.23-.72,10.28-1.05,15.33Q186,89.18,184.4,113.1q-1.35,20.52-2.68,41c-.45,6.78-.86,13.57-1.43,20.34a17.11,17.11,0,0,1-16,15.23c-2.69.11-5.39.06-8.08.06q-42.25,0-84.51.07c-9.91,0-17-6.41-17.88-16.25-.42-4.51-.68-9-1-13.55Q51.17,136,49.54,111.86,48,88.58,46.41,65.32c-.33-5-.7-10-1.08-15.25H41.27c-3.49,0-7-.14-10.47.05s-6.3-1-7.89-4.32Zm34.26,7.32c.26,4.09.5,8,.76,11.89q2,28.67,4,57.33,1.77,26,3.5,52c.34,5,2.16,6.66,7.22,6.65,29.51,0,59-.11,88.53,0,5.49,0,7.66-2.13,7.72-7.35,0-.37,0-.74.05-1.1q1-14.85,1.94-29.68,1.4-20.89,2.78-41.78,1.19-17.85,2.39-35.72c.27-4.08.51-8.15.78-12.36Zm95-30.18-70.48.07v18l70.49-.07Z"/><path class="cls-1" d="M122.92,116.27q0,17.72,0,35.44a6,6,0,0,1-4,5.93,5.61,5.61,0,0,1-6.6-2.29,7.75,7.75,0,0,1-1.07-3.78q-.12-35.53-.1-71.06c0-3.73,2.5-6.34,5.93-6.3s5.8,2.63,5.81,6.25Q122.93,98.37,122.92,116.27Z"/><path class="cls-1" d="M152.05,117c0,7.89,0,15.79,0,23.68a5.77,5.77,0,0,1-4.16,5.64,5.67,5.67,0,0,1-6.44-2.34,7.92,7.92,0,0,1-1.09-3.79q-.12-23.22-.07-46.45c0-3.74,2.55-6.36,5.94-6.32S152,90,152,93.83c0,7.71,0,15.42,0,23.13Z"/><path class="cls-1" d="M82,116.89c0-7.77,0-15.55,0-23.32,0-4.08,3.18-6.74,7-6a5.56,5.56,0,0,1,4.51,4.3,9.4,9.4,0,0,1,.24,2.37q0,22.77,0,45.53c0,3.5-1.64,5.93-4.41,6.6a5.83,5.83,0,0,1-7.32-5.81c-.08-5.63,0-11.26,0-16.89Z"/></g></svg>