<svg id="Capa_1" data-name="Capa 1" xmlns="http://www.w3.org/2000/svg" viewBox="0 0 234 198"><defs><style>.cls-1{fill:#606060;}</style></defs><path class="cls-1" d="M117,191H57.56c-3.6,0-6.11-2.16-6.35-5.39a5.79,5.79,0,0,1,5.31-6.23c.3,0,.6,0,.9,0H176.54c3.7,0,6.27,2.44,6.26,5.84a5.79,5.79,0,0,1-5.22,5.77c-.66.06-1.33,0-2,0Z"/><path class="cls-1" d="M156.53,96.28c-2.28-.75-4.22-.21-6.11,1.69q-11.4,11.48-22.84,22.92c-.29.29-.61.58-1,.94l-4.1,3.73V14.16c0-.67,0-1.33,0-2a5.45,5.45,0,0,0-10.68-1.26,11.55,11.55,0,0,0-.21,2.77V121.8l-3,1.36-2.61-2.71q-1.87-2-3.76-3.87-9.28-9.35-18.59-18.65a6.2,6.2,0,0,0-4.32-2,5.6,5.6,0,0,0-5.42,4.84,6.13,6.13,0,0,0,1.92,4.92q13,13,26,26l10.63,10.63c3.28,3.27,6.09,3.25,9.39,0l36.12-36.12a14.35,14.35,0,0,0,1.26-1.36,5.48,5.48,0,0,0,.88-5A5.37,5.37,0,0,0,156.53,96.28Z"/></svg>