<svg id="Capa_1" data-name="Capa 1" xmlns="http://www.w3.org/2000/svg" viewBox="0 0 234 198"><defs><style>.cls-1{fill:#606060;}</style></defs><path class="cls-1" d="M144.39,138.09C110.9,163,65.7,156.5,40.56,127.35a71.31,71.31,0,0,1,4.69-98.12C72.66,2.71,116.8.82,146.22,24.77c30.16,24.54,36.67,68.42,11.26,100.55.52.54,1.05,1.1,1.61,1.64,16.07,15.57,32.18,31.1,48.16,46.76a12.61,12.61,0,0,1,3.3,5.8c.93,3.91-1.23,7.59-4.79,9.42A9.52,9.52,0,0,1,195,187.5c-3-2.74-5.82-5.61-8.72-8.43L146,140C145.47,139.42,145,138.79,144.39,138.09ZM41.93,80.56c0,30.32,25.16,54.78,56.42,54.76,30.93,0,56-24.32,56.1-54.36.08-30.32-25.13-54.86-56.35-54.83C67.3,26.16,42,50.7,41.93,80.56Z"/></svg>