<svg id="Capa_1" data-name="Capa 1" xmlns="http://www.w3.org/2000/svg" viewBox="0 0 234 198"><defs><style>.cls-1{fill:#606060;}</style></defs><g id="s1eG88.tif"><path class="cls-1" d="M196.92,7c1.59.42,3.21.74,4.75,1.28,14.67,5.15,19.08,23,8.38,34-1.92,2-4,3.84-6,5.76q-47.78,45.91-95.6,91.81a11.58,11.58,0,0,1-4.43,2.57c-9.91,3.07-19.88,6-29.81,9-2.18.66-4.16.55-5.85-1A5.12,5.12,0,0,1,67,144.84c2.77-10.25,5.45-20.53,8.26-30.77a7.36,7.36,0,0,1,1.92-3.24Q127.93,62,178.72,13.21a21.86,21.86,0,0,1,11.83-5.92,3.55,3.55,0,0,0,.74-.29ZM79.53,139.07c.75-.2,1.22-.31,1.68-.45,6.05-1.8,12.11-3.58,18.14-5.45a7.19,7.19,0,0,0,2.77-1.57q43.53-41.76,87-83.6c.41-.39.8-.81,1.07-1.09L174.48,31.77c-.24.2-.58.46-.88.75q-43.74,42-87.45,84.08a3.37,3.37,0,0,0-1,1.41C83.28,124.93,81.45,131.85,79.53,139.07ZM198.11,39.46c1.67-1.7,3.56-3.35,5.1-5.26A10.2,10.2,0,0,0,203.52,22a11.47,11.47,0,0,0-11.69-4.55c-4.36.86-6.7,4.23-9.54,6.76Z"/><path class="cls-1" d="M84.5,191h-60c-3.64,0-6.18-2.19-6.41-5.45a5.84,5.84,0,0,1,5.35-6.28c.31,0,.61,0,.92,0q60.13,0,120.27,0c3.74,0,6.34,2.46,6.33,5.9a5.85,5.85,0,0,1-5.27,5.82c-.67.06-1.35,0-2,0Z"/></g></svg>