<?xml version="1.0" encoding="utf-8"?>
<!-- Generator: Adobe Illustrator 25.2.1, SVG Export Plug-In . SVG Version: 6.00 Build 0)  -->
<svg version="1.1" id="Capa_1" xmlns="http://www.w3.org/2000/svg" xmlns:xlink="http://www.w3.org/1999/xlink" x="0px" y="0px"
	 viewBox="0 0 595.3 422.5" style="enable-background:new 0 0 595.3 422.5;" xml:space="preserve">
<style type="text/css">
	.st0{fill:#CDCCCC;}
</style>
<g id="kB2sNV.tif">
	<g>
		<path class="st0" d="M297.6,22.5c7.5,0.8,15.1,1.2,22.5,2.5c58.1,9.8,102.2,40.2,132.8,90.5c3.7,6.1,2,13.2-3.7,16.8
			c-5.9,3.7-12.9,2.1-16.9-4.4c-8.5-13.9-18.4-26.7-30.4-37.8c-25.4-23.4-55.2-37.8-89.4-41.8c-49.7-5.9-93.7,8-130.8,41.8
			c-28.3,25.8-45.5,58.1-50.8,95.9c-7,50.3,6.9,94.7,40.9,132.5c26.5,29.5,59.9,47.6,99.2,51.7c67.2,7,120.1-18.3,158-74.4
			c1.2-1.8,2.2-3.6,3.4-5.4c4.1-6,10.9-7.7,16.7-4.1c5.7,3.5,7.4,10.6,3.8,16.8c-6,10.4-13,20.1-20.9,29.1
			c-24.3,27.4-53.9,46.9-89.3,56.5c-56,15.2-108.7,7.1-156.7-25.7c-41.4-28.2-66.8-67.6-77.3-116.6c-1.4-6.7-2.5-13.6-2.9-20.5
			c0-1,0.1-2.2-0.8-3c0-9,0-18.1,0-27.1c0.8-0.9,0.7-2,0.8-3c0.3-6.9,1.4-13.7,2.8-20.5c8.2-39.5,27.1-73.2,56.8-100.5
			c28-25.7,61-41.4,98.7-47c6.3-0.9,12.6-1.6,18.9-2.3C288,22.5,292.8,22.5,297.6,22.5z"/>
		<path class="st0" d="M339.5,197.4c34.2,0,68.4,0,102.6,0.1c3.3,0,4.4-0.8,4.2-4.1c-0.3-4.6-0.1-9.3-0.1-14c0.1-5,2-9,6.6-11.5
			c4.5-2.4,8.8-1.7,12.8,1c14.5,10.1,29,20.2,43.3,30.6c7.1,5.1,7.1,14.5,0,19.6c-14.3,10.4-28.8,20.5-43.3,30.6
			c-4,2.8-8.3,3.4-12.8,1c-4.5-2.4-6.6-6.4-6.6-11.5c0-4.8-0.2-9.6,0.1-14.4c0.2-3-0.8-3.7-3.8-3.7c-23.1,0.1-46.3,0.1-69.5,0.1
			c-45.4,0-90.7,0-136.1,0c-9.2,0-15.3-8.5-11.7-16.6c2.3-5.1,6.5-7.4,12.1-7.4C271.3,197.4,305.4,197.4,339.5,197.4z"/>
	</g>
</g>
</svg>
