<svg id="Capa_1" data-name="Capa 1" xmlns="http://www.w3.org/2000/svg" viewBox="0 0 234 198"><defs><style>.cls-1{fill:#606060;}</style></defs><path class="cls-1" d="M194.73,116.53A9.27,9.27,0,0,0,192,110a8.07,8.07,0,0,0-6.22-2.27c-4.94.15-8.27,3.85-8.28,9.19v54.06c0,4.37-1.38,5.77-5.67,5.77H62.09c-4.21,0-5.63-1.41-5.64-5.61V126.73c0-3.5,0-7,0-10.51a8.45,8.45,0,0,0-9.58-8.48c-4.58.44-7.65,4.17-7.65,9.27q0,27.44,0,54.89a23.79,23.79,0,0,0,.6,5.28C42.15,187.37,50.68,194,61.51,194l23.83,0,15.79,0h70.5a29.15,29.15,0,0,0,5.23-.32c10.66-2,17.84-10.81,17.87-22q0-16.26,0-32.54V123.24C194.76,121,194.78,118.78,194.73,116.53Z"/><path class="cls-1" d="M211.69,92a12.89,12.89,0,0,0-3.32-5.49q-30.87-31-61.82-61.92l-14-14C128.32,6.39,123.11,4,118.25,4h-.06a23,23,0,0,0-17.38,7.15q-23,23.07-46.08,46.1L25.24,86.73a11.66,11.66,0,0,0-1.45,1.61,8.45,8.45,0,0,0-.62,9.35c1.87,3.33,5,4.91,8.34,4.22a12.57,12.57,0,0,0,6.1-3.21Q71.45,65,105.16,31.26l7.5-7.51c3.31-3.3,5.29-3.34,8.57-.07l69.59,69.63c2.18,2.21,4.37,4.41,6.61,6.53a8.42,8.42,0,0,0,10,1.38A8.13,8.13,0,0,0,211.69,92Z"/></svg>