<svg id="Capa_1" data-name="Capa 1" xmlns="http://www.w3.org/2000/svg" viewBox="0 0 100 100"><circle cx="50.14" cy="47.83" r="38.83" fill="#36f"/><path d="M40,42.8A7.91,7.91,0,0,1,37.75,37,10.47,10.47,0,0,1,41,29.26q3.24-3.21,9.21-3.22,5.77,0,9,3a9.41,9.41,0,0,1,3.28,7.11,9.35,9.35,0,0,1-1.9,6.08,11.46,11.46,0,0,1-3.31,2.58,13,13,0,0,1,3.94,2.63,10.14,10.14,0,0,1,2.67,7.29,12.48,12.48,0,0,1-3.56,9q-3.55,3.67-10.06,3.68a15.55,15.55,0,0,1-9.91-3.18q-4-3.18-4-9.24a10.25,10.25,0,0,1,6.89-10.11A9.88,9.88,0,0,1,40,42.8ZM56.24,61a6.87,6.87,0,0,0,2.31-5.65,7.32,7.32,0,0,0-2.38-5.91,9.12,9.12,0,0,0-6.11-2,8.48,8.48,0,0,0-5.9,2.06,7.29,7.29,0,0,0-2.29,5.71A7.77,7.77,0,0,0,44,60.56c1.39,1.52,3.55,2.29,6.46,2.29A8.89,8.89,0,0,0,56.24,61ZM55.3,41.1a6.06,6.06,0,0,0,1.88-4.45,5.9,5.9,0,0,0-1.79-4.13q-1.8-1.88-5.46-1.88c-2.42,0-4.18.63-5.26,1.88a6.57,6.57,0,0,0-1.62,4.41,5.28,5.28,0,0,0,2.1,4.44,7.91,7.91,0,0,0,5,1.6A7,7,0,0,0,55.3,41.1Z" fill="#fff"/></svg>