<svg id="Capa_1" data-name="Capa 1" xmlns="http://www.w3.org/2000/svg" viewBox="0 0 256.57 500.57"><g opacity="0.3"><path d="M37.06,246.07A66.13,66.13,0,0,1,67.52,218q-19.87-13.2-25.84-28.57t-6-28.76q0-29.79,22.49-50.83t63.51-21q41,0,63.5,21t22.5,50.83q0,13.4-5.95,28.76T176,216.09q20.28,11.31,30.51,30t10.23,41.68q0,34.51-25.58,58.75t-71.46,24.24q-45.87,0-69.47-24.24t-23.6-58.75Q26.66,264.76,37.06,246.07ZM93,315.48q10.47,11.13,29,11.13t28.95-11.13q10.47-11.13,10.47-31.31,0-20.94-10.65-31.78T121.9,241.55q-18.11,0-28.76,10.84T82.49,284.17Q82.49,304.36,93,315.48ZM96.37,191q9.18,9.44,25.44,9.43,16.45,0,25.43-9.43t9-24.33q0-16.21-9-25.36t-25.43-9.15q-16.26,0-25.44,9.15T87.2,166.67Q87.2,181.58,96.37,191Z" fill="#ccc"/></g></svg>