<?xml version="1.0" encoding="utf-8"?>
<!-- Generator: Adobe Illustrator 25.2.1, SVG Export Plug-In . SVG Version: 6.00 Build 0)  -->
<svg version="1.1" id="Capa_1" xmlns="http://www.w3.org/2000/svg" xmlns:xlink="http://www.w3.org/1999/xlink" x="0px" y="0px"
	 viewBox="0 0 1280 200" style="enable-background:new 0 0 1280 200;" xml:space="preserve">
<style type="text/css">
	.st0{clip-path:url(#SVGID_2_);}
	.st1{clip-path:url(#SVGID_4_);}
	.st2{fill:#3366FF;}
	.st3{fill:#FF0033;}
	.st4{fill:#000097;}
	.st5{clip-path:url(#SVGID_6_);}
	.st6{clip-path:url(#SVGID_8_);}
	.st7{opacity:0.5;}
	.st8{opacity:0.6;}
</style>
<g>
	<defs>
		<rect id="SVGID_1_" width="1280" height="200"/>
	</defs>
	<clipPath id="SVGID_2_">
		<use xlink:href="#SVGID_1_"  style="overflow:visible;"/>
	</clipPath>
	<g class="st0">
		<defs>
			<rect id="SVGID_3_" x="0" y="-35" width="1280" height="339.5"/>
		</defs>
		<clipPath id="SVGID_4_">
			<use xlink:href="#SVGID_3_"  style="overflow:visible;"/>
		</clipPath>
		<g class="st1">
			<g>
				<path class="st2" d="M-290.4-50.1C65.1,58,26.1,162.7,210.1,190.4C346.5,210.9,506.8,145.5,705,137s373.9,92.4,723-54.3v-186.1
					L-290.4-50.1z"/>
				<g>
					
						<image style="overflow:visible;" width="1819" height="379" xlink:href="8D6A579E5059E17C.png"  transform="matrix(1 0 0 1 -351 -144.4985)">
					</image>
				</g>
			</g>
			<g>
				<g>
					<path class="st3" d="M1032.6-156.3C1233,89.5,646.9,208.1,254.1,57.4C-175.1-107.2-324.8,2.5-587.3-22.5
						c-188.6-18-340.9-127.2-663.4-151C-647.3-257.2,532-353.5,1032.6-156.3z"/>
					<g>
						
							<image style="overflow:visible;" width="2444" height="479" xlink:href="8D6A579E5059E17D.png"  transform="matrix(1 0 0 1 -1330 -317.4985)">
						</image>
					</g>
				</g>
			</g>
			<g>
				<g>
					<path class="st4" d="M-472-145.8c183.6-39.7,419.8-33.6,589.9,15.1C255.1-91.4,344.4-29.3,475.5,12.9
						C670.3,75.7,954.2,87,1174.8,40.7c100.4-21,186.1-52.4,284.3-74.9c96.3-22,217.4-36.1,322.7-17.4
						c52.7-133.5-180-254.1-469.9-301.7c-296.6-52.3-549.5-67.8-861.4-47.2C102.8-381.8-374.5-302-472-145.8z"/>
					<g>
						
							<image style="overflow:visible;" width="2341" height="555" xlink:href="8D6A579E5059E17B.png"  transform="matrix(1 0 0 1 -513 -449.4985)">
						</image>
					</g>
				</g>
			</g>
		</g>
	</g>
</g>
</svg>
