<svg id="Capa_1" data-name="Capa 1" xmlns="http://www.w3.org/2000/svg" xmlns:xlink="http://www.w3.org/1999/xlink" viewBox="0 0 1366 768"><defs><style>.cls-1{fill:none;}.cls-2{clip-path:url(#clip-path);}.cls-3{fill:#009;}.cls-4{fill:#36f;}.cls-5{fill:#f03;}</style><clipPath id="clip-path"><rect class="cls-1" x="-7.56" y="-13.89" width="1373.56" height="796.71"/></clipPath></defs><g class="cls-2"><rect class="cls-3" x="-8" y="-13.89" width="1374" height="796.71"/><path class="cls-4" d="M-213,178.38C167.12,432.14,125.39,677.85,322.14,742.72c145.79,48.07,317.24-105.34,529.12-125.3S1251.09,834.25,1624.4,490V53.13Z"/><path class="cls-5" d="M1079.92-54.54c188.08,577-362.08,855.23-730.85,501.62C-53.85,60.72-194.3,318.3-440.79,259.56c-177-42.19-320-298.56-622.76-354.35C-497.08-291.31,610-517.36,1079.92-54.54Z"/><path class="cls-3" d="M-321.26-224.63c172.39-93.09,394.1-78.9,553.74,35.42,128.76,92.28,212.68,238,335.75,337.05,182.83,147.29,449.36,173.79,656.39,65.25,94.23-49.41,174.66-122.94,266.89-175.85,90.41-51.71,204.08-84.82,302.9-40.76,49.51-313.25-169-596.44-441.07-708.07C1075-834.33,837.5-870.69,544.76-822.28,218.33-778.52-229.78-591.17-321.26-224.63Z"/></g></svg>