<?xml version="1.0" encoding="utf-8"?>
<!-- Generator: Adobe Illustrator 25.2.1, SVG Export Plug-In . SVG Version: 6.00 Build 0)  -->
<svg version="1.1" xmlns="http://www.w3.org/2000/svg" xmlns:xlink="http://www.w3.org/1999/xlink" x="0px" y="0px"
	 viewBox="0 0 530 514" style="enable-background:new 0 0 530 514;" xml:space="preserve">
<style type="text/css">
	.st0{display:none;}
	.st1{display:inline;}
	.st2{clip-path:url(#SVGID_2_);}
	.st3{fill:url(#SVGID_5_);}
	.st4{fill:url(#SVGID_6_);}
	.st5{opacity:0.3;fill:url(#SVGID_7_);}
	.st6{clip-path:url(#SVGID_9_);fill:#FFFFFF;}
	.st7{clip-path:url(#SVGID_9_);}
	.st8{fill:url(#SVGID_12_);}
	.st9{fill:url(#SVGID_13_);}
	.st10{fill:url(#SVGID_14_);}
	.st11{fill:url(#SVGID_15_);}
	.st12{fill:url(#SVGID_16_);}
	.st13{fill:url(#SVGID_17_);}
	.st14{fill:url(#SVGID_18_);}
	.st15{fill:url(#SVGID_19_);}
	.st16{fill:url(#SVGID_20_);}
	.st17{fill:url(#SVGID_21_);}
	.st18{fill:url(#SVGID_22_);}
	.st19{fill:#333333;}
	.st20{clip-path:url(#SVGID_24_);}
	.st21{fill:#4A494A;}
	.st22{display:inline;fill:#0B4075;}
	.st23{fill:#C1272F;}
	.st24{fill:#0B4075;}
	.st25{clip-path:url(#SVGID_32_);fill:#0066CC;}
	.st26{clip-path:url(#SVGID_32_);fill:#C1272F;}
	.st27{clip-path:url(#SVGID_32_);fill:#0B4075;}
	.st28{clip-path:url(#SVGID_32_);fill:#BB73F5;}
	.st29{opacity:0.2;fill:#0B4075;}
	.st30{clip-path:url(#SVGID_34_);fill:#0066CC;}
	.st31{clip-path:url(#SVGID_34_);fill:#C1272F;}
	.st32{clip-path:url(#SVGID_34_);fill:#0B4075;}
	.st33{clip-path:url(#SVGID_34_);fill:#BB73F5;}
	.st34{fill:#000099;}
	.st35{fill:#3366FF;}
	.st36{fill:#CCCCCC;}
	.st37{fill:#FF0033;}
	.st38{fill:#006699;}
	.st39{fill:#FFFFFF;}
	.st40{clip-path:url(#SVGID_38_);fill:#000099;}
	.st41{clip-path:url(#SVGID_38_);fill:#3366FF;}
	.st42{clip-path:url(#SVGID_38_);fill:#FF0033;}
	.st43{clip-path:url(#SVGID_40_);fill:#FFFFFF;}
	.st44{clip-path:url(#SVGID_40_);fill:#3366FF;}
	.st45{clip-path:url(#SVGID_40_);fill:#FF0033;}
	.st46{clip-path:url(#SVGID_40_);fill:#000099;}
	.st47{clip-path:url(#SVGID_42_);}
	.st48{fill:url(#SVGID_45_);}
	.st49{fill:url(#SVGID_46_);}
	.st50{opacity:0.3;fill:url(#SVGID_47_);}
	.st51{clip-path:url(#SVGID_49_);fill:#000099;}
	.st52{clip-path:url(#SVGID_49_);}
	.st53{clip-path:url(#SVGID_51_);fill:#3366FF;}
	.st54{clip-path:url(#SVGID_51_);fill:#FF0033;}
	.st55{clip-path:url(#SVGID_51_);fill:#000099;}
	.st56{clip-path:url(#SVGID_51_);fill:#BB73F5;}
	.st57{fill:url(#SVGID_52_);}
	.st58{fill:url(#SVGID_53_);}
	.st59{fill:url(#SVGID_54_);}
	.st60{fill:url(#SVGID_55_);}
	.st61{fill:url(#SVGID_56_);}
	.st62{fill:url(#SVGID_57_);}
	.st63{fill:url(#SVGID_58_);}
	.st64{fill:url(#SVGID_59_);}
	.st65{fill:url(#SVGID_60_);}
	.st66{fill:url(#SVGID_61_);}
	.st67{fill:url(#SVGID_62_);}
	.st68{clip-path:url(#SVGID_64_);}
	.st69{clip-path:url(#SVGID_68_);}
	.st70{fill:url(#SVGID_73_);}
	.st71{fill:url(#SVGID_74_);}
	.st72{opacity:0.3;fill:url(#SVGID_75_);}
	.st73{clip-path:url(#SVGID_77_);fill:#FFFFFF;}
	.st74{clip-path:url(#SVGID_77_);}
	.st75{clip-path:url(#SVGID_81_);fill:#3366FF;}
	.st76{clip-path:url(#SVGID_81_);fill:#FF0033;}
	.st77{clip-path:url(#SVGID_81_);fill:#000099;}
	.st78{clip-path:url(#SVGID_81_);fill:#BB73F5;}
	.st79{fill:url(#SVGID_82_);}
	.st80{fill:url(#SVGID_83_);}
	.st81{fill:url(#SVGID_84_);}
	.st82{fill:url(#SVGID_85_);}
	.st83{fill:url(#SVGID_86_);}
	.st84{clip-path:url(#SVGID_88_);}
	.st85{fill:url(#SVGID_93_);}
	.st86{fill:url(#SVGID_94_);}
	.st87{fill:url(#SVGID_95_);}
	.st88{fill:url(#SVGID_96_);}
	.st89{fill:url(#SVGID_97_);}
	.st90{fill:url(#SVGID_98_);}
	.st91{fill:none;}
	.st92{fill:none;stroke:#606060;stroke-width:0.25;stroke-miterlimit:10;}
	.st93{clip-path:url(#SVGID_100_);fill:#000099;}
	.st94{clip-path:url(#SVGID_100_);fill:#3366FF;}
	.st95{clip-path:url(#SVGID_100_);fill:#FF0033;}
	.st96{clip-path:url(#SVGID_102_);fill:#FFFFFF;}
	.st97{clip-path:url(#SVGID_102_);fill:#3366FF;}
	.st98{clip-path:url(#SVGID_102_);fill:#FF0033;}
	.st99{clip-path:url(#SVGID_102_);fill:#000099;}
	.st100{fill:#606060;}
	.st101{clip-path:url(#SVGID_104_);fill:#000099;}
	.st102{clip-path:url(#SVGID_104_);}
	.st103{clip-path:url(#SVGID_106_);fill:#3366FF;}
	.st104{clip-path:url(#SVGID_106_);fill:#FF0033;}
	.st105{clip-path:url(#SVGID_106_);fill:#000099;}
	.st106{clip-path:url(#SVGID_106_);fill:#BB73F5;}
	.st107{clip-path:url(#SVGID_108_);fill:#FFFFFF;}
	.st108{clip-path:url(#SVGID_108_);}
	.st109{clip-path:url(#SVGID_110_);fill:#3366FF;}
	.st110{clip-path:url(#SVGID_110_);fill:#FF0033;}
	.st111{clip-path:url(#SVGID_110_);fill:#000099;}
	.st112{clip-path:url(#SVGID_110_);fill:#BB73F5;}
</style>
<g id="RECHAZADAS" class="st0">
</g>
<g id="Generales">
</g>
<g id="Finales">
	<g>
		<g>
			<path class="st39" d="M94.6,266.3c4.4,2.4,7.2,6.5,8.2,12.4h-6.1c-0.7-3.3-2.2-5.7-4.5-7.2c-2.3-1.5-5.2-2.3-8.6-2.3
				c-4.1,0-7.6,1.6-10.4,4.7c-2.8,3.1-4.2,7.8-4.2,14.1c0,5.4,1.2,9.8,3.5,13.2c2.3,3.4,6.1,5.1,11.3,5.1c4,0,7.3-1.2,10-3.6
				c2.6-2.4,4-6.2,4-11.5H83.6v-5.1h19.9v24.3h-4l-1.5-5.8c-2,2.3-3.9,3.9-5.4,4.8c-2.7,1.5-6,2.3-10.1,2.3c-5.3,0-9.8-1.7-13.6-5.2
				c-4.2-4.4-6.2-10.4-6.2-18c0-7.6,2-13.6,6.1-18.1c3.9-4.3,8.8-6.4,15-6.4C88,263.9,91.6,264.7,94.6,266.3z"/>
			<path class="st39" d="M110,265h6.1v40h22.8v5.4H110V265z"/>
			<path class="st39" d="M178.8,271.5c3,4,4.5,9.1,4.5,15.4c0,6.8-1.7,12.4-5.2,16.9c-4,5.3-9.8,7.9-17.3,7.9
				c-7,0-12.5-2.3-16.5-6.9c-3.6-4.4-5.3-10.1-5.3-16.9c0-6.1,1.5-11.4,4.6-15.7c3.9-5.6,9.7-8.4,17.4-8.4
				C169.1,263.8,175,266.4,178.8,271.5z M173.4,300.4c2.4-3.9,3.6-8.3,3.6-13.4c0-5.3-1.4-9.6-4.2-12.9c-2.8-3.3-6.6-4.9-11.4-4.9
				c-4.7,0-8.5,1.6-11.5,4.8c-3,3.2-4.4,8-4.4,14.3c0,5,1.3,9.3,3.8,12.7c2.5,3.5,6.7,5.2,12.4,5.2
				C167.1,306.2,171,304.3,173.4,300.4z"/>
			<path class="st39" d="M186.8,265h21.4c5.8,0,10,1.6,12.5,4.8c1.5,1.9,2.2,4,2.2,6.5c0,2.9-0.9,5.2-2.7,7c-0.9,1-2.3,1.9-4,2.7
				c2.5,0.9,4.4,1.9,5.7,3c2.2,2,3.3,4.7,3.3,8.2c0,2.9-1,5.6-3,7.9c-3,3.5-7.8,5.3-14.4,5.3h-21.1V265z M205.8,284.2
				c2.9,0,5.1-0.4,6.7-1.1c2.5-1.1,3.8-3.2,3.8-6.1c0-3-1.3-5-4-6c-1.5-0.6-3.7-0.9-6.7-0.9h-12.1v14H205.8z M208,305.1
				c4.2,0,7.1-1.1,8.9-3.3c1.1-1.4,1.7-3,1.7-5c0-3.3-1.6-5.5-4.9-6.7c-1.7-0.6-4-1-6.9-1h-13.5v16H208z"/>
			<path class="st39" d="M245.5,265h8.4l19.9,47h-8.1l-5.6-14.1h-21.7l-5.9,14.1h-7.6L245.5,265z M257.7,292.7l-8.3-20.7l-8.8,20.7
				H257.7z"/>
			<path class="st39" d="M274,265h6.7v40h24.9v5.4H274V265z"/>
			<path class="st39" d="M308.4,265h6.7v40H340v5.4h-31.6V265z"/>
			<path class="st39" d="M331.2,265h7.8l14.3,21.8l14.3-21.8h7.9l-18.8,27.1v18.3h-6.7v-18.3L331.2,265z"/>
		</g>
		<g>
			<path class="st39" d="M109.7,171.8v9.6H82.4v71H71.4v-71H44v-9.6H109.7z"/>
			<path class="st39" d="M119.2,171.8h11.1v36H172v-36H183v80.6H172v-34.9h-41.6v34.9h-11.1V171.8z"/>
			<path class="st39" d="M202.1,171.8h11.1v80.6h-11.1V171.8z"/>
			<path class="st39" d="M224.6,171.8h12.9l48.7,65.1v-65.1h10.5v80.6h-12.3l-49.3-65v65h-10.5V171.8z"/>
			<path class="st39" d="M310.8,171.8h10.7V214l46-42.2h13.4l-38.2,35.3l35.3,45.3h-14.4l-29-37.7L321.5,227v25.3h-10.7V171.8z"/>
		</g>
		<g>
			<path class="st39" d="M396.6,303c0,3.6-2.5,5.6-7.7,5.6h-9.2v-21.2h8.6c4.4,0,7.2,1.8,7.2,5.4c0,2.6-1.5,4.2-3.9,4.9
				C394.9,298.2,396.6,300,396.6,303z M380.7,288.3v9.1h7.6c3.9,0,6.1-1.5,6.1-4.5c0-3-2.3-4.5-6.1-4.5H380.7z M395.6,302.9
				c0-3.3-2.3-4.7-6.6-4.7h-8.2v9.4h8.2C393.3,307.6,395.6,306.2,395.6,302.9z"/>
			<path class="st39" d="M415,292.7l-8.2,16c-1.2,2.4-2.7,3.2-4.6,3.2c-1.4,0-2.7-0.4-3.5-1.2l0.6-0.7c0.8,0.8,1.7,1.2,2.9,1.2
				c1.5,0,2.6-0.6,3.7-2.6l1-1.9l-7.1-13.9h1.1l6.6,12.9l6.6-12.9H415z"/>
			<path class="st39" d="M414.2,307.6c0-0.5,0.5-1,1-1c0.5,0,1,0.5,1,1c0,0.6-0.5,1-1,1C414.6,308.6,414.2,308.2,414.2,307.6z"/>
			<path class="st39" d="M445.7,303c0,3.6-2.5,5.6-7.7,5.6h-9.2v-21.2h8.6c4.4,0,7.2,1.8,7.2,5.4c0,2.6-1.5,4.2-3.9,4.9
				C444,298.2,445.7,300,445.7,303z M429.9,288.3v9.1h7.6c3.9,0,6.1-1.5,6.1-4.5c0-3-2.3-4.5-6.1-4.5H429.9z M444.7,302.9
				c0-3.3-2.3-4.7-6.6-4.7h-8.2v9.4h8.2C442.4,307.6,444.7,306.2,444.7,302.9z"/>
			<path class="st39" d="M450.3,305.7l0.5-0.7c1.4,1.5,4.1,2.8,7,2.8c4.4,0,6.4-2,6.4-4.5c0-6.8-13.3-2.8-13.3-10.6
				c0-2.8,2.2-5.4,7.2-5.4c2.3,0,4.7,0.8,6.3,1.9l-0.5,0.8c-1.7-1.2-3.9-1.8-5.8-1.8c-4.3,0-6.3,2.1-6.3,4.5
				c0,6.8,13.3,2.9,13.3,10.6c0,2.9-2.3,5.4-7.4,5.4C454.7,308.7,451.8,307.5,450.3,305.7z"/>
			<path class="st39" d="M482,302.3h-12.7l-2.8,6.2h-1.1l9.8-21.2h1l9.8,21.2h-1.1L482,302.3z M481.6,301.5l-5.9-12.9l-6,12.9H481.6
				z"/>
		</g>
		<polygon class="st39" points="400.2,342.2 81.3,342.2 400.2,320.2 		"/>
	</g>
	<g>
		<defs>
			<path id="SVGID_103_" d="M-861.6,573.2V104.3c0-10.4,8.4-18.8,18.8-18.8h198.7c10.4,0,18.8,8.4,18.8,18.8v468.9
				c0,10.4-8.4,18.8-18.8,18.8h-198.7C-853.2,592-861.6,583.6-861.6,573.2z"/>
		</defs>
		<clipPath id="SVGID_2_">
			<use xlink:href="#SVGID_103_"  style="overflow:visible;"/>
		</clipPath>
		<g class="st2">
			<defs>
				<path id="SVGID_105_" d="M-141.9,635.4h-982.9V37.9c0-12.2,9.9-22,22-22h942.4c10.2,0,18.6,8.3,18.6,18.6V635.4z"/>
			</defs>
			<clipPath id="SVGID_4_">
				<use xlink:href="#SVGID_105_"  style="overflow:visible;"/>
			</clipPath>
			<path style="clip-path:url(#SVGID_4_);fill:#000099;" d="M-1505.5-44.8c122.5-63.8,280.1-54.1,393.6,24.3
				c91.5,63.2,151.2,163.1,238.6,231c129.9,100.9,319.4,119.1,466.5,44.7c67-33.9,124.1-84.3,189.7-120.5
				c64.3-35.4,145-58.1,215.3-27.9C33.4-108-121.9-302-315.3-378.5c-197.9-84.1-366.6-109-574.7-75.9
				C-1122-424.4-1440.5-296-1505.5-44.8z"/>
		</g>
	</g>
	<g>
		<defs>
			<path id="SVGID_107_" d="M-545.2,573.3V104.4c0-10.4,8.4-18.8,18.8-18.8h198.7c10.4,0,18.8,8.4,18.8,18.8v468.9
				c0,10.4-8.4,18.8-18.8,18.8h-198.7C-536.8,592.1-545.2,583.7-545.2,573.3z"/>
		</defs>
		<clipPath id="SVGID_5_">
			<use xlink:href="#SVGID_107_"  style="overflow:visible;"/>
		</clipPath>
		<g style="clip-path:url(#SVGID_5_);">
			<defs>
				<path id="SVGID_109_" d="M-203.7,350.6H-634V101.4c0-12.2,9.9-22,22-22h389.7c10.2,0,18.6,8.3,18.6,18.6V350.6z"/>
			</defs>
			<clipPath id="SVGID_6_">
				<use xlink:href="#SVGID_109_"  style="overflow:visible;"/>
			</clipPath>
			<path style="clip-path:url(#SVGID_6_);fill:#BB73F5;" d="M-512.4-229.8C-350.1-120.7-368-15.1-284,12.8
				c62.2,20.7,135.4-45.3,225.9-53.8c90.5-8.6,170.7,93.2,330-54.8v-133.9H-512.4z"/>
		</g>
	</g>
</g>
</svg>
